<svg width="1192" height="229" viewBox="0 0 1192 229" fill="none" xmlns="http://www.w3.org/2000/svg">
<path fill-rule="evenodd" clip-rule="evenodd" d="M612.095 215.992L609.564 31.188L657.658 41.3142L660.189 228.65L612.095 215.992ZM648.5 67H622V74H631V99H639.5V74H648.5V67ZM621.5 113.5H629.5V126H641.5V113.5H650V145.5H641.5V132.5H629.5V145.5H621.5V113.5ZM647 166.5H631.5V173H645V179.5H631.5V185.5H647V192H623V160H623.5H647V166.5Z" fill="#051E2C"/>
<path fill-rule="evenodd" clip-rule="evenodd" d="M1073.03 129V216.245H1192V183.334H1113.53V152.196H1181.62V119.286H1113.53V88.9073H1192V55.9971H1122.5L1073.03 129Z" fill="#051E2C"/>
<path d="M807.002 181.816V216.245H690.564V55.9971H731.064V181.816H807.002ZM865.291 216.245H824.791V55.9971H865.291V216.245Z" fill="#051E2C"/>
<path d="M875.369 168.367L875 169.008V169.758V207.725V216L879.583 209.292L937.051 125.215L1007.96 209.503L1010.07 212.01L1011.91 209.28L1132.82 30.2951L1134 28.5577L1132.66 26.9622L1112.13 2.55524L1109.97 0L1108.14 2.81911L1009.65 154.489L938.788 64.9894L936.52 62.1243L934.686 65.3159L875.369 168.367Z" fill="url(#paint0_linear_103_148)"/>
<path fill-rule="evenodd" clip-rule="evenodd" d="M135.519 175.099C135.519 188.585 131.305 198.784 122.877 205.696C114.618 212.607 99.9535 216.063 78.8842 216.063H0V56H9.86053H76.3559C90.3458 56 101.218 57.5172 108.971 60.5516C116.893 63.4172 122.456 67.7159 125.659 73.4477C128.861 79.1795 130.462 86.3438 130.462 94.9412C130.462 106.742 127.597 115.929 121.866 122.503C116.304 128.909 105.769 132.787 90.2617 134.135V134.894C101.723 135.736 110.741 137.675 117.315 140.71C123.889 143.575 128.524 147.79 131.221 153.353C134.086 158.916 135.519 166.165 135.519 175.099ZM65.2312 87.861H40.4534V119.216H65.2312C73.4906 119.216 79.474 118.205 83.1824 116.182C86.8908 113.99 88.7447 109.776 88.7447 103.539C88.7447 97.4698 86.8908 93.3399 83.1824 91.1482C79.474 88.9565 73.4906 87.861 65.2312 87.861ZM70.2879 152.341H40.4534V184.455H70.2879C78.5473 184.455 84.5306 183.36 88.2391 181.168C91.9475 178.808 93.8014 174.509 93.8014 168.272C93.8014 161.866 91.9475 157.652 88.2391 155.629C84.5306 153.437 78.5473 152.341 70.2879 152.341ZM158.268 216.063V56H258.5L277.1 88.5V88.8724H198.722V119.216H266.734V152.089H198.722V183.191H277.1V216.063H158.268ZM443.921 215.305V216.063H400.939C399.759 212.017 398.327 207.382 396.641 202.156C395.124 196.93 393.438 191.367 391.585 185.467H336.972C333.602 197.267 330.483 207.466 327.618 216.063H284.636V215.558L336.467 56H392.09L443.921 215.305ZM363.773 84.8266C362.087 93.424 359.643 103.876 356.441 116.182C353.238 128.488 349.867 141.047 346.327 153.859H382.483C378.774 141.047 375.319 128.488 372.116 116.182C368.914 103.876 366.47 93.424 364.784 84.8266H363.773ZM494.587 216.063V90.1367H449.077V56H559L578.5 90.1367H535.04V216.063H494.587Z" fill="#051E2C"/>
<defs>
<linearGradient id="paint0_linear_103_148" x1="874.654" y1="193.456" x2="1141.28" y2="40.0179" gradientUnits="userSpaceOnUse">
<stop stop-color="#73E038"/>
<stop offset="1" stop-color="#00FFE1"/>
</linearGradient>
</defs>
</svg>
